HIERARCHY
ROOT Hips
{
 OFFSET 0.000000 0.000000 0.000000
 CHANNELS 6 Xposition Yposition Zposition Yrotation Xrotation Zrotation
 JOINT Chest
 {
  OFFSET 0.000000 9.585900 0.002600
  CHANNELS 3 Yrotation Xrotation Zrotation
  JOINT Chest2
  {
   OFFSET 0.000000 9.601200 -0.005300
   CHANNELS 3 Yrotation Xrotation Zrotation
   JOINT Chest3
   {
    OFFSET 0.000000 9.561800 0.000000
    CHANNELS 3 Yrotation Xrotation Zrotation
    JOINT Chest4
    {
     OFFSET 0.000000 9.552100 0.000000
     CHANNELS 3 Yrotation Xrotation Zrotation
     JOINT Neck
     {
      OFFSET 0.000000 14.453000 0.000000
      CHANNELS 3 Yrotation Xrotation Zrotation
      JOINT Head
      {
       OFFSET 0.000000 8.936500 -0.011300
       CHANNELS 3 Yrotation Xrotation Zrotation
       End Site
       {
        OFFSET 0.000000 17.073600 -0.006000
       }
      }
     }
     JOINT RightCollar
     {
      OFFSET -2.921100 9.558500 0.000000
      CHANNELS 3 Yrotation Xrotation Zrotation
      JOINT RightShoulder
      {
       OFFSET -13.519700 0.000000 0.000000
       CHANNELS 3 Yrotation Xrotation Zrotation
       JOINT RightElbow
       {
        OFFSET 0.000000 -29.696600 0.000000
        CHANNELS 3 Yrotation Xrotation Zrotation
        JOINT RightWrist
        {
         OFFSET 0.000000 -24.004700 0.000000
         CHANNELS 3 Yrotation Xrotation Zrotation
         End Site
         {
          OFFSET 0.000000 -17.728500 0.000000
         }
        }
       }
      }
     }
     JOINT LeftCollar
     {
      OFFSET 2.921100 9.558500 0.000000
      CHANNELS 3 Yrotation Xrotation Zrotation
      JOINT LeftShoulder
      {
       OFFSET 13.519700 0.000000 0.000000
       CHANNELS 3 Yrotation Xrotation Zrotation
       JOINT LeftElbow
       {
        OFFSET 0.000000 -29.696600 0.000000
        CHANNELS 3 Yrotation Xrotation Zrotation
        JOINT LeftWrist
        {
         OFFSET 0.000000 -24.004700 0.000000
         CHANNELS 3 Yrotation Xrotation Zrotation
         End Site
         {
          OFFSET 0.000000 -17.728500 0.000000
         }
        }
       }
      }
     }
    }
   }
  }
 }
 JOINT RightHip
 {
  OFFSET -7.771700 -0.012900 -0.001300
  CHANNELS 3 Yrotation Xrotation Zrotation
  JOINT RightKnee
  {
   OFFSET 0.000000 -40.869800 0.001200
   CHANNELS 3 Yrotation Xrotation Zrotation
   JOINT RightAnkle
   {
    OFFSET 0.000000 -39.717900 0.002100
    CHANNELS 3 Yrotation Xrotation Zrotation
    JOINT RightToe
    {
     OFFSET 0.000000 -4.965400 11.033500
     CHANNELS 3 Yrotation Xrotation Zrotation
     End Site
     {
      OFFSET 0.000000 -1.423100 5.872300
     }
    }
   }
  }
 }
 JOINT LeftHip
 {
  OFFSET 7.771700 -0.012900 -0.001300
  CHANNELS 3 Yrotation Xrotation Zrotation
  JOINT LeftKnee
  {
   OFFSET 0.000000 -40.869800 0.001200
   CHANNELS 3 Yrotation Xrotation Zrotation
   JOINT LeftAnkle
   {
    OFFSET 0.000000 -39.717900 0.002100
    CHANNELS 3 Yrotation Xrotation Zrotation
    JOINT LeftToe
    {
     OFFSET 0.000000 -4.965400 11.033500
     CHANNELS 3 Yrotation Xrotation Zrotation
     End Site
     {
      OFFSET 0.000000 -1.423100 5.872300
     }
    }
   }
  }
 }
}
MOTION
Frames: 9
Frame Time: 0.008333
27.826396 49.831634 62.671306 174.209284 -35.009279 -7.822406 7.155575 20.132098 6.600939 0.893035 2.824321 0.611147 1.458125 4.572142 1.010486 6.152869 17.223342 4.585500 -2.556598 17.994988 2.955399 -5.690413 -2.235483 6.272961 -3.917463 -2.719375 -5.225454 0.679862 -1.364900 1.005065 96.084996 -70.933254 -101.525363 8.043593 -1.510960 19.103060 -8.140564 -1.507232 0.923342 1.959348 -1.973399 -0.023334 -126.198779 -68.724838 129.719800 15.732009 -13.776541 -12.009839 0.518261 -45.543065 10.266836 -104.660516 81.136500 -92.368448 -0.140299 -12.382724 -2.914978 -0.108875 1.064723 -0.040037 -10.188078 -49.446065 16.814386 -150.208124 80.527945 -157.946857 1.729251 -16.710948 8.022451 -0.358208 -0.804161 -0.141748
27.832230 49.836821 62.682681 174.196326 -35.002883 -7.798221 7.175451 20.219760 6.608344 0.896070 2.758764 0.595259 1.462739 4.644414 1.020219 6.164063 17.267151 4.578246 -2.556351 17.943072 2.965445 -5.673767 -2.266489 6.292817 -3.826198 -2.874187 -5.261217 0.793037 -1.399287 1.068185 95.918013 -71.121719 -101.329353 8.074175 -1.569098 18.610587 -8.153184 -1.642578 0.930313 1.925115 -1.973811 -0.091810 -126.218732 -68.821235 129.709876 15.680655 -13.662898 -12.047347 0.556842 -45.567763 10.252890 -104.670045 81.124894 -92.367258 -0.159489 -12.385527 -2.921086 -0.096685 1.074533 -0.034475 -10.195073 -49.453631 16.832015 -149.978999 80.530084 -157.749734 1.747394 -16.688684 8.026073 -0.366689 -0.809226 -0.138963
27.838267 49.843087 62.692745 174.170842 -35.007188 -7.766108 7.189660 20.260275 6.596884 0.896039 2.785791 0.598072 1.466554 4.662541 1.020354 6.165684 17.304551 4.571153 -2.544084 17.915218 2.973717 -5.660804 -2.324959 6.300111 -3.623476 -3.011200 -5.318921 0.826196 -1.431216 1.145434 95.698378 -71.305778 -101.087356 8.095955 -1.612815 18.131160 -8.139574 -1.728544 0.926980 1.898626 -1.998855 -0.121012 -126.303522 -68.959841 129.747841 15.635212 -13.560881 -12.061960 0.604158 -45.591378 10.231813 -104.745530 81.097671 -92.430440 -0.153118 -12.358302 -2.926805 -0.094362 1.054948 -0.032672 -10.173761 -49.451782 16.832548 -149.854507 80.534260 -157.644795 1.757279 -16.677236 8.022929 -0.372876 -0.814738 -0.136111
27.848835 49.850649 62.702992 174.139902 -35.015466 -7.760612 7.214629 20.308643 6.618265 0.903602 2.803285 0.597957 1.463721 4.678101 1.020897 6.163674 17.341230 4.563605 -2.532416 17.846710 2.971628 -5.656216 -2.358788 6.300726 -3.468212 -3.138498 -5.362344 0.925706 -1.482752 1.209226 95.429542 -71.473185 -100.806437 8.105307 -1.635025 17.670811 -8.143189 -1.784839 0.925427 1.894581 -2.044797 -0.153463 -126.381439 -69.102992 129.772685 15.592039 -13.462832 -12.056024 0.617862 -45.590875 10.248646 -104.653258 81.039906 -92.314302 -0.107455 -12.351238 -2.948180 -0.087042 1.061881 -0.032615 -10.166298 -49.443445 16.860483 -149.790726 80.538477 -157.584411 1.780677 -16.676399 8.014219 -0.385071 -0.815262 -0.138760
27.853044 49.858318 62.711537 174.128615 -35.023324 -7.732328 7.204163 20.369538 6.604549 0.912135 2.810094 0.594587 1.468034 4.659050 1.015021 6.155408 17.404832 4.566639 -2.516880 17.788233 2.967859 -5.636596 -2.374656 6.318261 -3.328291 -3.249641 -5.402445 1.062190 -1.547928 1.269751 95.111185 -71.604198 -100.491380 8.097541 -1.639825 17.234075 -8.139520 -1.861708 0.930335 1.852276 -2.008942 -0.264136 -126.399574 -69.161120 129.769228 15.547586 -13.361316 -12.040460 0.640499 -45.591149 10.214423 -104.680738 81.032656 -92.338085 -0.072038 -12.348059 -2.945501 -0.119347 1.062777 -0.047933 -10.140036 -49.436633 16.850544 -149.682072 80.548840 -157.492561 1.770271 -16.657871 8.015572 -0.369646 -0.822863 -0.133936
27.855529 49.864817 62.721830 174.117581 -35.013071 -7.701580 7.187914 20.394225 6.584206 0.902938 2.860228 0.602812 1.487231 4.614602 0.997506 6.142746 17.452487 4.568099 -2.500369 17.814432 2.994352 -5.611467 -2.473485 6.317265 -3.181515 -3.338348 -5.446674 1.212268 -1.627418 1.339566 94.741181 -71.683506 -100.146751 8.080781 -1.637472 16.838382 -8.130670 -1.928429 0.941818 1.837737 -1.970702 -0.338904 -126.494618 -69.258120 129.813001 15.501369 -13.247535 -12.017493 0.628142 -45.599637 10.179611 -104.671361 81.016552 -92.334029 0.002317 -12.345987 -2.956973 -0.155889 1.066601 -0.066622 -10.105931 -49.449831 16.831468 -149.591394 80.566298 -157.409997 1.750818 -16.634094 8.018715 -0.364138 -0.827618 -0.131060
27.861418 49.874659 62.728744 174.096379 -35.029036 -7.690304 7.197929 20.428350 6.593523 0.893300 2.881845 0.608461 1.490439 4.627335 0.992269 6.135185 17.466989 4.558121 -2.484511 17.806174 3.010959 -5.585809 -2.526740 6.324428 -3.030041 -3.404670 -5.496344 1.373444 -1.724559 1.427277 94.322806 -71.708738 -99.780586 8.087297 -1.612644 16.527806 -8.112477 -1.988155 0.945322 1.826666 -1.932070 -0.381919 -126.612654 -69.378845 129.860583 15.452112 -13.127324 -11.985350 0.627362 -45.583575 10.177790 -104.637013 80.982259 -92.284696 0.045469 -12.344573 -2.975230 -0.158558 1.068579 -0.071479 -10.073973 -49.431044 16.840333 -149.479453 80.571256 -157.299201 1.730526 -16.628285 8.023820 -0.342718 -0.826721 -0.129319
27.863628 49.884300 62.734588 174.070231 -35.043804 -7.659825 7.212970 20.448520 6.581353 0.882989 2.894973 0.614840 1.490506 4.652936 0.995187 6.132067 17.453464 4.542275 -2.478216 17.810356 3.028530 -5.560007 -2.558225 6.338952 -2.883020 -3.432624 -5.546537 1.537121 -1.836998 1.533419 93.861202 -71.688091 -99.399086 8.126980 -1.547399 16.316004 -8.103454 -2.012792 0.953630 1.819568 -1.892519 -0.418245 -126.736011 -69.496912 129.900130 15.399737 -13.014188 -11.951231 0.618786 -45.563209 10.157569 -104.614814 80.977139 -92.266137 0.086744 -12.350322 -2.973983 -0.174244 1.075092 -0.099206 -10.018665 -49.416422 16.814825 -149.428552 80.581506 -157.246495 1.709429 -16.619375 8.027256 -0.339943 -0.829700 -0.129187
27.865234 49.893089 62.740846 174.053091 -35.048782 -7.636453 7.202635 20.471853 6.574131 0.897923 2.884447 0.604167 1.474833 4.678507 1.004973 6.117101 17.462583 4.533446 -2.454574 17.796229 3.033593 -5.533954 -2.573958 6.354017 -2.705780 -3.469148 -5.613852 1.699141 -1.963077 1.650824 93.362473 -71.635588 -99.008914 8.103833 -1.604819 16.101453 -8.074680 -2.092137 1.021469 1.815602 -1.809001 -0.513148 -126.842021 -69.603313 129.916780 15.348389 -12.919261 -11.923722 0.591598 -45.551887 10.145293 -104.597921 80.977995 -92.259972 0.131717 -12.349328 -2.984295 -0.199664 1.075369 -0.114985 -9.974917 -49.412612 16.790706 -149.426743 80.595799 -157.241658 1.690754 -16.607994 8.028609 -0.349747 -0.832878 -0.129055
